<?xml version="1.0" standalone="no"?>
<!DOCTYPE svg PUBLIC "-//W3C//DTD SVG 20010904//EN"
 "http://www.w3.org/TR/2001/REC-SVG-20010904/DTD/svg10.dtd">
<svg version="1.0" xmlns="http://www.w3.org/2000/svg"
 width="500.000000pt" height="500.000000pt" viewBox="0 0 500.000000 500.000000"
 preserveAspectRatio="xMidYMid meet">
<metadata>
Created by potrace 1.14, written by Peter Selinger 2001-2017
</metadata>
<g transform="translate(0.000000,500.000000) scale(0.100000,-0.100000)"
fill="#000000" stroke="none">
<path d="M3270 4268 c-47 -83 -107 -244 -161 -436 -27 -97 -86 -287 -130 -422
-44 -135 -171 -533 -282 -886 l-202 -641 -55 49 c-142 128 -308 188 -521 188
-192 0 -351 -47 -507 -149 -98 -65 -210 -178 -261 -264 -104 -176 -139 -456
-82 -652 86 -291 334 -528 647 -617 114 -32 299 -32 404 1 278 86 477 297 620
655 35 88 74 218 159 533 34 122 74 259 91 305 16 46 72 225 124 398 149 495
317 1054 320 1065 10 30 138 -354 167 -500 65 -329 -7 -576 -212 -725 -96 -70
-124 -124 -124 -240 0 -96 20 -147 75 -193 77 -65 170 -56 307 29 297 186 467
519 467 914 0 224 -30 333 -165 600 -124 246 -542 967 -591 1019 -32 35 -54
26 -88 -31z"/>
</g>
</svg>
